<svg xmlns="http://www.w3.org/2000/svg" viewBox="0 0 100 100" width="100" height="100">
  <defs>
    <linearGradient id="tomatoGradient" x1="0%" y1="0%" x2="100%" y2="100%">
      <stop offset="0%" style="stop-color:#ff6b6b;stop-opacity:1" />
      <stop offset="100%" style="stop-color:#ee5a52;stop-opacity:1" />
    </linearGradient>
    <linearGradient id="leafGradient" x1="0%" y1="0%" x2="100%" y2="100%">
      <stop offset="0%" style="stop-color:#4CAF50;stop-opacity:1" />
      <stop offset="100%" style="stop-color:#45a049;stop-opacity:1" />
    </linearGradient>
  </defs>
  
  <!-- Tomato body -->
  <ellipse cx="50" cy="60" rx="35" ry="30" fill="url(#tomatoGradient)" />
  
  <!-- Tomato segments -->
  <path d="M 20 45 Q 50 35 80 45 Q 50 55 20 45" fill="none" stroke="#ee5a52" stroke-width="1.5" opacity="0.6"/>
  <path d="M 25 60 Q 50 50 75 60 Q 50 70 25 60" fill="none" stroke="#ee5a52" stroke-width="1.5" opacity="0.6"/>
  <path d="M 30 75 Q 50 65 70 75 Q 50 85 30 75" fill="none" stroke="#ee5a52" stroke-width="1.5" opacity="0.6"/>
  
  <!-- Tomato leaves/stem -->
  <path d="M 40 25 Q 35 15 30 20 Q 35 25 40 30" fill="url(#leafGradient)"/>
  <path d="M 50 20 Q 45 10 40 15 Q 45 20 50 25" fill="url(#leafGradient)"/>
  <path d="M 60 25 Q 55 15 50 20 Q 55 25 60 30" fill="url(#leafGradient)"/>
  <path d="M 70 30 Q 65 20 60 25 Q 65 30 70 35" fill="url(#leafGradient)"/>
  
  <!-- Highlight -->
  <ellipse cx="40" cy="50" rx="8" ry="6" fill="rgba(255,255,255,0.3)" transform="rotate(-20 40 50)"/>
</svg>